# xmcd
#
# Track frame offsets:
#	150
#	21455
#	37277
#	51992
#	58182
#	92715
#	102972
#	120882
#	133395
#	148592
#	164287
#	174882
#	190577
#	211280
# Disc length: 2968 seconds
# Revision: 1
# Processed by: cddbd v1.5.1PL0 Copyright (c) Steve Scherf et al.
#
# Submitted via: libkcddb 0.10
#
DISCID=ca0b960e
DTITLE=Herman Brock Jr. and The Eurocasters - Straight Up!
DYEAR=1900
DGENRE=Unknown
TTITLE0=Country is what I am
TTITLE1=You can love me too
TTITLE2=Sold my soul to R&R
TTITLE3=Intro
TTITLE4=Stages of life
TTITLE5=This gal of mine
TTITLE6=The devil in me
TTITLE7=You can't change me
TTITLE8=(oh Lord) The Devil's got a hold of me
TTITLE9=Move it on over
TTITLE10=Waistin' time thinking' 'bout you
TTITLE11=Heineken(tm) Beer
TTITLE12=Spoonful
TTITLE13=Yah I'm Movin'
EXTD=
EXTT0=
EXTT1=
EXTT2=
EXTT3=
EXTT4=
EXTT5=
EXTT6=
EXTT7=
EXTT8=
EXTT9=
EXTT10=
EXTT11=
EXTT12=
EXTT13=
PLAYORDER=
